<svg
  viewBox="0 0 48 48"
  fill="currentColor"
  xmlns="http://www.w3.org/2000/svg"
>
    <path d="M5.5 10C5.5 6.41015 8.41015 3.5 12 3.5H14.5C18.0899 3.5 21 6.41015 21 10V38C21 41.5899 18.0899 44.5 14.5 44.5H12C8.41015 44.5 5.5 41.5899 5.5 38V10Z" />
    <path d="M26.5 10C26.5 6.41015 29.4101 3.5 33 3.5H34.5C38.0899 3.5 41 6.41015 41 10V16C41 19.5899 38.0899 22.5 34.5 22.5H33C29.4101 22.5 26.5 19.5899 26.5 16V10Z" />
    <path d="M30 30C30 26.4101 32.9101 23.5 36.5 23.5H38.5C42.0899 23.5 45 26.4101 45 30V38C45 41.5899 42.0899 44.5 38.5 44.5H36.5C32.9101 44.5 30 41.5899 30 38V30Z" />
</svg>